<svg xmlns="http://www.w3.org/2000/svg" viewBox="0 0 1280 720" width="600" height="400">
  <rect width="1280" height="720" fill="#e0f2f1"/>
  <!-- Yoga mat illustration -->
  <g transform="translate(640, 360)" fill="none" stroke="#a5b4a8" stroke-width="8" stroke-linecap="round" stroke-linejoin="round">
    <!-- Yoga mat -->
    <rect x="-200" y="-40" width="400" height="80" rx="40" ry="40"/>
    <rect x="-180" y="-30" width="360" height="60" rx="30" ry="30"/>
    <rect x="-160" y="-20" width="320" height="40" rx="20" ry="20"/>
    <!-- Plant pot -->
    <g transform="translate(-300, 0)">
      <rect x="-30" y="-20" width="60" height="40" rx="5" ry="5"/>
      <!-- Leaves -->
      <path d="M-20,-40 C-30,-60 -10,-70 0,-50 C10,-70 30,-60 20,-40"/>
      <path d="M-10,-45 C-20,-65 0,-75 10,-55 C20,-75 40,-65 30,-45"/>
      <path d="M0,-50 C-10,-70 10,-80 20,-60 C30,-80 50,-70 40,-50"/>
    </g>
  </g>
</svg>