<svg xmlns="http://www.w3.org/2000/svg" viewBox="0 0 100 100" width="512" height="512" aria-label="Well-V Logo">
  <defs>
    <clipPath id="clip-left">
      <path d="M0,0 L100,0 L0,100 Z" />
    </clipPath>
    <clipPath id="clip-right">
      <path d="M100,0 L100,100 L0,100 Z" />
    </clipPath>
  </defs>
  
  <path 
    d="M50 95C25 80 5 60 5 40C5 20 25 5 50 25C75 5 95 20 95 40C95 60 75 80 50 95Z"
    fill="#f1f5f9"
    clipPath="url(#clip-left)"
  />
  <path 
    d="M50 95C25 80 5 60 5 40C5 20 25 5 50 25C75 5 95 20 95 40C95 60 75 80 50 95Z"
    fill="#e2e8f0"
    clipPath="url(#clip-right)"
  />
  
  <!-- White star motif on the top-right of the heart -->
  <path 
    d="M72 28 L75 22 L78 28 L84 31 L78 34 L75 40 L72 34 L66 31 Z"
    fill="#ffffff"
  />
</svg>